<svg xmlns="http://www.w3.org/2000/svg" xml:space="preserve" width="1181" height="1181" style="shape-rendering:geometricPrecision;text-rendering:geometricPrecision;image-rendering:optimizeQuality;fill-rule:evenodd;clip-rule:evenodd"><defs><style>.fil0{fill:#454545;fill-rule:nonzero}</style></defs><g id="Слой_x0020_1"><g id="_2053555915392"><path d="M447.06 237.69V60.78h24.93l56.7 89.5c13.12 20.74 23.36 39.37 31.76 57.48l.52-.26c-2.1-23.62-2.62-45.14-2.62-72.7V60.78h21.52v176.91h-23.1l-56.17-89.77c-12.34-19.69-24.15-39.9-33.08-59.06l-.78.26c1.31 22.31 1.83 43.58 1.83 72.97v75.6h-21.51zM733.94 173.12c0 46.98-32.54 67.45-63.25 67.45-34.39 0-60.89-25.19-60.89-65.35 0-42.53 27.82-67.46 62.99-67.46 36.48 0 61.15 26.51 61.15 65.36zm-100.79 1.31c0 27.82 16.01 48.82 38.59 48.82 22.05 0 38.58-20.73 38.58-49.34 0-21.53-10.76-48.83-38.05-48.83-27.31 0-39.12 25.2-39.12 49.35z" class="fil0"/></g><g id="_2053555971024"><path d="M289.44 484.2c.26 7.87-5.51 14.17-14.7 14.17-8.13 0-13.91-6.3-13.91-14.17 0-8.14 6.04-14.44 14.44-14.44 8.66 0 14.17 6.3 14.17 14.44zm-25.72 162.73V519.89h23.1v127.04h-23.1zM325.14 554.28c0-13.13-.27-23.89-1.05-34.39h20.21l1.05 20.48h.79c7.08-12.08 18.9-23.36 39.89-23.36 17.33 0 30.45 10.5 35.96 25.46h.53c3.94-7.09 8.92-12.6 14.17-16.54 7.61-5.78 16.01-8.92 28.09-8.92 16.8 0 41.73 11.02 41.73 55.12v74.8h-22.58v-71.92c0-24.41-8.92-39.11-27.56-39.11-13.12 0-23.36 9.72-27.29 21-1.05 3.15-1.84 7.35-1.84 11.55v78.48h-22.57v-76.12c0-20.21-8.93-34.91-26.51-34.91-14.44 0-24.94 11.55-28.61 23.1-1.31 3.41-1.84 7.35-1.84 11.29v76.64h-22.57v-92.65zM614.39 646.93l-1.84-16.01h-.79c-7.09 9.98-20.74 18.9-38.85 18.9-25.72 0-38.85-18.11-38.85-36.48 0-30.71 27.3-47.51 76.38-47.25v-2.63c0-10.49-2.88-29.39-28.87-29.39-11.81 0-24.15 3.67-33.07 9.45l-5.25-15.23c10.49-6.82 25.72-11.28 41.73-11.28 38.85 0 48.3 26.51 48.3 51.97v47.5c0 11.03.52 21.79 2.1 30.45h-20.99zm-3.41-64.83c-25.2-.52-53.81 3.94-53.81 28.61 0 14.96 9.97 22.05 21.78 22.05 16.54 0 27.04-10.5 30.71-21.26.79-2.36 1.32-4.99 1.32-7.35V582.1zM780.01 519.89c-.53 9.19-1.05 19.43-1.05 34.91v73.76c0 29.13-5.78 46.98-18.11 58-12.34 11.55-30.19 15.23-46.2 15.23-15.22 0-32.02-3.68-42.26-10.5l5.78-17.59c8.4 5.25 21.53 9.98 37.27 9.98 23.63 0 40.95-12.34 40.95-44.36v-14.18h-.53c-7.08 11.82-20.73 21.27-40.42 21.27-31.5 0-54.07-26.78-54.07-61.95 0-43.04 28.08-67.45 57.22-67.45 22.05 0 34.12 11.55 39.63 22.05h.53l1.05-19.16 20.21-.01zm-23.89 50.14c0-3.94-.26-7.35-1.31-10.5-4.2-13.39-15.49-24.41-32.28-24.41-22.05 0-37.8 18.63-37.8 48.03 0 24.94 12.6 45.67 37.53 45.67 14.18 0 27.04-8.92 32.03-23.62 1.31-3.94 1.83-8.4 1.83-12.34v-22.83zM830.14 587.61c.52 31.24 20.47 44.1 43.57 44.1 16.53 0 26.51-2.89 35.17-6.57l3.94 16.54c-8.14 3.68-22.05 7.88-42.26 7.88-39.11 0-62.47-25.73-62.47-64.05 0-38.32 22.58-68.5 59.58-68.5 41.48 0 52.5 36.48 52.5 59.84 0 4.73-.53 8.4-.79 10.76h-89.24zm67.72-16.53c.26-14.7-6.04-37.54-32.03-37.54-23.36 0-33.59 21.53-35.43 37.54h67.46z" class="fil0"/></g><g id="_2053555966368"><path d="m195.74 1117.34-1.84-16.01h-.78c-7.09 9.97-20.74 18.89-38.85 18.89-25.72 0-38.85-18.11-38.85-36.48 0-30.71 27.3-47.51 76.38-47.25v-2.62c0-10.5-2.89-29.4-28.87-29.4-11.81 0-24.15 3.68-33.07 9.45l-5.26-15.23c10.5-6.82 25.73-11.28 41.74-11.28 38.85 0 48.29 26.51 48.29 51.97v47.51c0 11.02.53 21.78 2.1 30.44l-20.99.01zm-3.41-64.84c-25.2-.52-53.81 3.94-53.81 28.61 0 14.96 9.98 22.05 21.79 22.05 16.53 0 27.03-10.49 30.71-21.26.78-2.36 1.31-4.99 1.31-7.35v-22.05zM258.73 990.3l24.94 71.39c4.2 11.55 7.61 22.05 10.24 32.55h.78c2.89-10.5 6.57-21 10.76-32.55l24.68-71.39h24.14l-49.87 127.03h-22.05L234.06 990.3h24.67zM445.36 1117.34l-1.84-16.01h-.79c-7.09 9.97-20.73 18.89-38.84 18.89-25.73 0-38.85-18.11-38.85-36.48 0-30.71 27.29-47.51 76.38-47.25v-2.62c0-10.5-2.89-29.4-28.88-29.4-11.81 0-24.14 3.68-33.07 9.45l-5.25-15.23c10.5-6.82 25.72-11.28 41.73-11.28 38.85 0 48.3 26.51 48.3 51.97v47.51c0 11.02.52 21.78 2.1 30.44l-20.99.01zm-3.42-64.84c-25.19-.52-53.8 3.94-53.8 28.61 0 14.96 9.97 22.05 21.78 22.05 16.54 0 27.04-10.49 30.71-21.26.79-2.36 1.31-4.99 1.31-7.35v-22.05zM527.25 954.6c.26 7.88-5.52 14.17-14.7 14.17-8.14 0-13.91-6.3-13.91-14.17 0-8.13 6.04-14.44 14.44-14.44 8.65 0 14.17 6.3 14.17 14.44zm-25.73 162.74V990.3h23.1v127.03h-23.1v.01zM562.94 930.98h23.1v186.36h-23.1zM695.23 1117.34l-1.84-16.01h-.78c-7.09 9.97-20.74 18.89-38.85 18.89-25.72 0-38.85-18.11-38.85-36.48 0-30.71 27.29-47.51 76.38-47.25v-2.62c0-10.5-2.89-29.4-28.87-29.4-11.81 0-24.15 3.68-33.07 9.45l-5.26-15.23c10.5-6.82 25.73-11.28 41.74-11.28 38.84 0 48.29 26.51 48.29 51.97v47.51c0 11.02.53 21.78 2.1 30.44l-20.99.01zm-3.41-64.84c-25.2-.52-53.81 3.94-53.81 28.61 0 14.96 9.97 22.05 21.78 22.05 16.54 0 27.04-10.49 30.72-21.26.78-2.36 1.31-4.99 1.31-7.35v-22.05zM750.35 1117.34c.52-8.67 1.05-21.53 1.05-32.81V930.98h22.83v79.79h.53c8.14-14.17 22.84-23.36 43.31-23.36 31.5 0 53.81 26.24 53.54 64.83 0 45.41-28.6 67.98-56.95 67.98-18.38 0-33.08-7.09-42.53-23.89h-.78l-1.05 21h-19.95v.01zm23.88-50.93c0 2.89.53 5.78 1.06 8.4 4.46 16.01 17.85 27.04 34.64 27.04 24.15 0 38.59-19.69 38.59-48.82 0-25.46-13.13-47.25-37.8-47.25-15.75 0-30.45 10.76-35.17 28.35-.53 2.63-1.32 5.77-1.32 9.45v22.83zM900.74 930.98h23.1v186.36h-23.1zM975.55 1058.02c.52 31.23 20.47 44.09 43.57 44.09 16.53 0 26.51-2.89 35.17-6.56l3.94 16.53c-8.14 3.68-22.05 7.88-42.26 7.88-39.11 0-62.47-25.72-62.47-64.04 0-38.33 22.58-68.51 59.58-68.51 41.47 0 52.5 36.49 52.5 59.84 0 4.73-.53 8.4-.79 10.76h-89.24v.01zm67.71-16.54c.27-14.7-6.03-37.54-32.02-37.54-23.36 0-33.6 21.53-35.43 37.54h67.45z" class="fil0"/></g><path d="M-.45.45h1181v1181H-.45V.45zm24.09 24.09h1132.82v1132.82H23.64V24.54z" style="fill:#454545"/></g></svg>