<svg xmlns="http://www.w3.org/2000/svg" xml:space="preserve" width="200" height="300" style="shape-rendering:geometricPrecision;text-rendering:geometricPrecision;image-rendering:optimizeQuality;fill-rule:evenodd;clip-rule:evenodd"><defs><style>.fil0{fill:#999;fill-rule:nonzero}</style></defs><g id="Слой_x0020_1"><g id="_2369958820544"><path d="M96.21 24.61v-7.2c0-1.32-.2-2.24-.6-2.77-.4-.52-1.06-.79-1.99-.79-.5 0-1.02.15-1.57.44-.54.31-.96.67-1.26 1.12v9.2h-2.2V12.25h1.51l.69 1.58c.72-1.21 1.9-1.82 3.54-1.82 2.72 0 4.07 1.64 4.07 4.95v7.65h-2.19zm4.49-6.21c0-1.91.52-3.46 1.55-4.64 1.02-1.17 2.38-1.75 4.06-1.75 1.76 0 3.12.56 4.11 1.7.97 1.11 1.47 2.68 1.47 4.69 0 2-.51 3.57-1.5 4.72-1 1.14-2.36 1.72-4.08 1.72-1.77 0-3.14-.59-4.13-1.75-.98-1.15-1.48-2.72-1.48-4.69zm2.33 0c0 3.09 1.09 4.64 3.28 4.64 1.01 0 1.81-.41 2.39-1.24.58-.84.86-1.96.86-3.4 0-3.06-1.08-4.61-3.25-4.61-1.01 0-1.8.42-2.4 1.23-.59.81-.88 1.95-.88 3.38zM71.88 35.01c.38 0 .69.13.97.4.26.26.39.58.39.95v.03c0 .73-.59 1.33-1.33 1.33h-.03c-.37 0-.68-.12-.96-.39-.26-.27-.39-.59-.39-.97s.13-.7.39-.96c.27-.27.58-.39.96-.39zm-1.21 17.04V41.53h-1.7v-1.84h3.89v12.36h-2.19zm20.03 0v-7.82c0-1.96-.85-2.93-2.54-2.93-.53 0-1.02.15-1.48.49-.47.33-.78.69-.95 1.12v9.14h-2.2v-8.79c0-.61-.23-1.08-.68-1.45-.47-.34-1.08-.51-1.82-.51-.45 0-.91.17-1.4.51-.5.34-.85.71-1.06 1.12v9.12h-2.21V39.69h1.44l.73 1.42c.84-1.11 1.91-1.66 3.18-1.66 1.76 0 3 .55 3.71 1.66.25-.48.71-.87 1.38-1.18a4.84 4.84 0 0 1 2.08-.48c1.26 0 2.26.38 2.95 1.14.72.77 1.06 1.82 1.06 3.19v8.27H90.7zm12.26-1.43c-.88 1.12-2.23 1.67-4.03 1.67-.96 0-1.8-.36-2.52-1.06-.71-.7-1.06-1.58-1.06-2.64 0-1.26.55-2.31 1.63-3.18 1.11-.87 2.49-1.3 4.19-1.3.47 0 1 .11 1.57.3 0-1.99-.88-3-2.67-3-1.36 0-2.41.38-3.16 1.12l-.92-1.85c.42-.34.98-.62 1.72-.87.75-.23 1.44-.36 2.11-.36 1.79 0 3.1.41 3.91 1.23.81.81 1.21 2.11 1.21 3.89V49c0 1.09.33 1.82.97 2.18v1.09c-.89 0-1.55-.13-2-.39-.44-.25-.76-.66-.95-1.26zm-.22-4.64c-.68-.16-1.17-.24-1.44-.24-1.1 0-2.01.28-2.71.86-.7.57-1.04 1.24-1.04 2.02 0 1.29.76 1.95 2.26 1.95 1.12 0 2.08-.53 2.93-1.59v-3zm5.21 9.45 1.19-1.75c1.28.85 2.46 1.27 3.54 1.27 1 0 1.79-.16 2.35-.5.59-.35.87-.77.87-1.28 0-1-.73-1.5-2.18-1.5-.24 0-.68.07-1.33.2-.65.12-1.16.18-1.52.18-1.76 0-2.64-.66-2.64-1.99 0-.4.22-.77.62-1.11.41-.33.92-.57 1.53-.72-1.75-.81-2.62-2.22-2.62-4.25 0-1.29.45-2.36 1.35-3.23.91-.86 2.02-1.3 3.34-1.3 1.22 0 2.17.26 2.86.75l1.1-1.31 1.43 1.34-1.31 1.01c.55.72.84 1.68.84 2.86 0 1.24-.39 2.29-1.18 3.15-.77.84-1.79 1.32-3.05 1.45l-1.81.19c-.22.02-.51.1-.88.24-.35.15-.54.33-.54.56 0 .32.39.48 1.14.48.33 0 .85-.07 1.55-.18.7-.12 1.22-.18 1.56-.18 1.21 0 2.16.29 2.85.86.67.58 1.02 1.39 1.02 2.42 0 1.14-.52 2.06-1.53 2.76-1.02.7-2.31 1.05-3.88 1.05-.79 0-1.64-.15-2.53-.42-.88-.29-1.59-.64-2.14-1.05zm4.66-14.2c-.77 0-1.4.26-1.88.8-.47.55-.72 1.2-.72 1.97 0 .85.24 1.58.7 2.14.47.58 1.1.85 1.9.85.78 0 1.39-.27 1.83-.83.44-.55.66-1.27.66-2.16 0-.77-.24-1.42-.72-1.97-.47-.54-1.07-.8-1.77-.8zm18.08 4.86h-8.9c0 1.45.39 2.56 1.18 3.33.7.68 1.6 1.02 2.7 1.02 1.25 0 2.29-.37 3.13-1.1l.92 1.58c-.33.33-.85.62-1.55.88-.87.33-1.86.49-2.93.49-1.55 0-2.87-.53-3.96-1.59-1.21-1.16-1.81-2.72-1.81-4.69 0-2.04.62-3.68 1.85-4.91 1.12-1.1 2.43-1.65 3.94-1.65 1.77 0 3.14.5 4.15 1.5.97.95 1.45 2.22 1.45 3.8 0 .48-.06.94-.17 1.34zm-5.32-4.79c-.99 0-1.8.32-2.47.95-.63.6-.98 1.36-1.07 2.26h6.86c0-.89-.28-1.64-.83-2.24-.62-.64-1.44-.97-2.49-.97zM60.58 78.08c-.88 1.1-2.22 1.66-4.02 1.66-.97 0-1.82-.36-2.52-1.07-.72-.7-1.07-1.58-1.07-2.63 0-1.25.55-2.31 1.64-3.18 1.11-.87 2.49-1.3 4.19-1.3.46 0 .99.1 1.56.3 0-2-.88-2.99-2.66-2.99-1.38 0-2.43.36-3.17 1.1l-.91-1.84c.41-.34.98-.63 1.71-.87.74-.25 1.44-.35 2.11-.35 1.79 0 3.09.41 3.91 1.22.81.81 1.21 2.11 1.21 3.9v4.42c0 1.09.32 1.81.97 2.18v1.08c-.89 0-1.56-.13-2-.38-.44-.24-.76-.67-.95-1.25zm-.22-4.66c-.68-.15-1.17-.23-1.44-.23-1.1 0-2 .29-2.71.86-.69.56-1.05 1.25-1.05 2.03 0 1.28.76 1.92 2.27 1.92 1.11 0 2.09-.52 2.93-1.58v-3zm10.1 6.32h-.55L64.6 67.11h2.42l3.25 8.66 3.34-8.66h2.29l-5.44 12.62v.01zm14.11-1.66c-.88 1.1-2.22 1.66-4.03 1.66-.96 0-1.8-.36-2.51-1.07-.72-.7-1.07-1.58-1.07-2.63 0-1.25.55-2.31 1.64-3.18 1.1-.87 2.49-1.3 4.19-1.3.47 0 .99.1 1.57.3 0-2-.9-2.99-2.67-2.99-1.38 0-2.44.36-3.17 1.1l-.92-1.84c.41-.34.99-.63 1.72-.87.73-.25 1.45-.35 2.11-.35 1.8 0 3.11.41 3.91 1.22.81.81 1.22 2.11 1.22 3.9v4.42c0 1.09.31 1.81.97 2.18v1.08c-.9 0-1.58-.13-2.01-.38-.44-.24-.76-.67-.95-1.25zm-.21-4.66c-.69-.15-1.18-.23-1.45-.23-1.1 0-2 .29-2.71.86-.69.56-1.03 1.25-1.03 2.03 0 1.28.74 1.92 2.25 1.92 1.11 0 2.09-.52 2.94-1.58v-3zm7.9-10.96c.39 0 .71.13.98.39.26.28.39.59.39.96s-.13.69-.39.96c-.27.26-.6.4-.98.4-.36 0-.68-.14-.95-.4-.27-.27-.39-.59-.39-.96 0-.38.12-.69.39-.96.26-.26.58-.39.95-.39zM91.05 79.5V68.99h-1.7v-1.86h3.9V79.5h-2.2zm5.87-3.49V62.08h2.2v13.56c0 .65.19 1.18.57 1.56.38.38.88.58 1.48.58v1.95c-2.83 0-4.25-1.24-4.25-3.72zm13.77 2.07c-.87 1.1-2.21 1.66-4.02 1.66-.97 0-1.8-.36-2.51-1.07-.71-.7-1.06-1.58-1.06-2.63 0-1.25.53-2.31 1.64-3.18 1.09-.87 2.49-1.3 4.19-1.3.46 0 .97.1 1.57.3 0-2-.9-2.99-2.69-2.99-1.36 0-2.41.36-3.16 1.1l-.92-1.84c.42-.34.99-.63 1.73-.87.68-.23 1.39-.35 2.1-.35 1.8 0 3.11.41 3.92 1.22.8.81 1.21 2.11 1.21 3.9v4.42c0 1.09.32 1.81.97 2.18v1.08c-.89 0-1.56-.13-2.01-.38-.44-.25-.75-.67-.96-1.25zm-.19-4.66c-.7-.15-1.18-.23-1.47-.23-1.09 0-2 .29-2.69.86-.69.56-1.05 1.25-1.05 2.03 0 1.28.77 1.92 2.26 1.92 1.11 0 2.09-.52 2.95-1.58v-3zm7.52 5.2-.77 1.12h-1.1V62.08h2.19v5.96c.22-.28.61-.55 1.17-.78.54-.23 1.11-.35 1.69-.35 1.7 0 3.08.57 4.13 1.75 1.05 1.17 1.58 2.64 1.58 4.44 0 2.06-.53 3.68-1.58 4.86-1.06 1.19-2.49 1.77-4.29 1.77-.6 0-1.16-.11-1.73-.32-.58-.23-1-.49-1.29-.79zm.32-8.9v7.15c0 .12.29.31.83.6.54.28.96.41 1.24.41 1.5 0 2.56-.35 3.21-1.07.65-.71.96-1.91.96-3.6 0-1.41-.38-2.49-1.13-3.29-.74-.78-1.77-1.18-3.04-1.18-.27 0-.64.12-1.12.34-.48.24-.79.45-.95.64zm11.14 6.29V62.08h2.2v13.56c0 .65.19 1.18.56 1.56.39.38.89.58 1.5.58v1.95c-2.84 0-4.26-1.24-4.26-3.72zm17.23-2.47h-8.9c0 1.44.39 2.56 1.18 3.34.69.67 1.6 1.01 2.71 1.01 1.24 0 2.28-.37 3.12-1.11l.92 1.58c-.33.35-.85.64-1.54.89-.88.33-1.87.49-2.94.49-1.56 0-2.88-.53-3.96-1.59-1.21-1.15-1.82-2.73-1.82-4.68 0-2.05.63-3.68 1.86-4.92 1.11-1.1 2.43-1.64 3.94-1.64 1.76 0 3.14.49 4.15 1.48.96.96 1.45 2.23 1.45 3.81 0 .49-.06.93-.17 1.34zm-5.33-4.8c-.97 0-1.78.33-2.46.96-.62.61-.98 1.36-1.07 2.26h6.85c0-.9-.27-1.63-.83-2.24-.6-.65-1.43-.98-2.49-.98zM199.81 299.84c0-13.54-.02-27.1 0-40.64 0-6.2 1.19-4.97-4.25-6.01-7.5-1.43-20-3.12-25.83-4.52-9.84-2.39-20.52-8.4-27.25-13.45-3.32-2.49-7.85-5.91-9.39-10.94-1.59-5.25-1.74-12.53-1.55-18.46.62-20.7 9.53-11.72 12.36-28.35 1.86-10.92 2.67-25.72 2.94-37.31.37-15.66-.94-12-4.92-15.36-2.64-2.23-1.97-4.05-2.92-7.46-1.4-5.14-5.04-8.96-7.55-12.81-2.69-4.09-2.23-5.46-3.16-6.81-1.78-2.55-8.7-5.88-12.44-7.54-15.04-6.69-32.75-10.47-48.45-1.1-4.72 2.82-3.29 3.45-4.63 5.36-1.26 1.8-5.4 1.04-7.68 2.31-3.58 2-6.09 7.97-8 12.34-2.02 4.67-4.36 9.41-6.62 13.72-3.41 6.53-2.96 18.66-1.15 26.24 1.15 4.82 1.55 4.07 3.38 6.61 4.26 5.94-1.2 23.62 6.68 34.03 3.34 4.43 4.96 7.57 5.77 14.58.68 5.9-.17 13.32-1.79 18.19-3.51 10.55-9.27 18.5-20.64 20.15-3.21.46-6.63.22-9.73.63-5.81.77-3.3 2.45-6.06 3.88-4.88 2.53-12.19 1.39-16.96 3l-.05 49.82 199.89-.11v.01z" class="fil0"/></g></g></svg>